<?xml version="1.0" encoding="UTF-8" standalone="no"?>
<!-- Created with Inkscape (http://www.inkscape.org/) -->

<svg
   xmlns:dc="http://purl.org/dc/elements/1.1/"
   xmlns:cc="http://creativecommons.org/ns#"
   xmlns:rdf="http://www.w3.org/1999/02/22-rdf-syntax-ns#"
   xmlns:svg="http://www.w3.org/2000/svg"
   xmlns="http://www.w3.org/2000/svg"
   xmlns:sodipodi="http://sodipodi.sourceforge.net/DTD/sodipodi-0.dtd"
   xmlns:inkscape="http://www.inkscape.org/namespaces/inkscape"
   width="343pt"
   height="340pt"
   id="svg3833"
   version="1.1"
   inkscape:version="0.48.4 r9939"
   sodipodi:docname="ieee-logo.svg">
  <defs
     id="defs3835" />
  <sodipodi:namedview
     pagecolor="#ffffff"
     bordercolor="#666666"
     borderopacity="1.0"
     inkscape:pageopacity="0.0"
     inkscape:pageshadow="2"
     inkscape:zoom="0.8"
     inkscape:cx="-6.875"
     inkscape:cy="210"
     inkscape:document-units="pt"
     inkscape:current-layer="layer1"
     id="namedview3837"
     showgrid="false"
     inkscape:window-width="729"
     inkscape:window-height="573"
     inkscape:window-x="507"
     inkscape:window-y="69"
     inkscape:window-maximized="0" />
  <metadata
     id="metadata3839">
    <rdf:RDF>
      <cc:Work
         rdf:about="">
        <dc:format>image/svg+xml</dc:format>
        <dc:type
           rdf:resource="http://purl.org/dc/dcmitype/StillImage" />
        <dc:title />
      </cc:Work>
    </rdf:RDF>
  </metadata>
  <g
     inkscape:label="Layer 1"
     inkscape:groupmode="layer"
     id="layer1">
    <g
       id="g3036"
       transform="matrix(0.32849804,0,0,-0.32849804,-29.615748,480.23536)"
       style="fill:#a4a4a4;fill-opacity:1">
      <path
         inkscape:connector-curvature="0"
         d="m 818.77,1354.24 c 38.593,-48.96 79.199,-100.22 120.964,-146.59 l 103.106,-107.71 c 93.31,-92.74 192.38,-174.53 298.66,-246.823 l 3.45,-0.566 c 13.53,-8.645 22.76,-24.199 24.19,-40.039 -0.57,-34.27 -40.03,-41.184 -60.76,-59.61 -206.5,-149.765 -391.4,-335.234 -537.13,-541.73 l -11.797,-11.805 c -11.816,-7.207 -27.082,-4.328 -39.465,0 -15.84,5.176 -17.566,22.461 -27.644,33.113 -32.254,50.11 -73.442,97.063 -108.574,143.711 -20.739,21.028 -38.02,43.204 -59.332,65.664 -119.809,131.329 -254.59,246.536 -395.426,343.586 -10.078,10.079 -18.43,23.329 -13.821,39.454 4.321,17.859 25.051,28.515 38.879,39.46 175.969,120.668 337.246,278.205 473.473,446.975 l 84.961,110.6 c 11.226,8.63 26.207,15.84 40.035,9.78 6.328,-1.73 13.535,-7.48 19.297,-10.94 l 46.934,-66.53 z m -121.528,-94.75 c -39.746,-28.51 -77.476,-57.6 -115.488,-90.43 -3.172,-2.02 -6.914,-6.33 -8.934,-8.35 -88.41,-78.92 -175.965,-165.319 -247.39,-256.323 -20.16,-26.211 -41.469,-51.836 -49.25,-82.949 -0.285,-16.704 2.304,-32.247 11.23,-44.922 60.485,-90.149 140.547,-176.25 220.324,-250.274 68.832,-61.347 135.075,-128.73 213.692,-169.922 25.926,-12.09 55.019,2.02 76.609,17.285 106.848,75.165 202.175,169.336 292.605,266.68 41.76,51.27 89.57,98.211 113.19,156.973 6.34,23.32 -3.74,43.191 -15.26,60.762 -70.56,100.8 -156.38,196.12 -248.836,281.95 l -6.043,3.46 c -33.418,32.25 -71.425,63.93 -108.007,91.87 -34.844,29.66 -86.973,56.45 -128.442,24.19"
         style="fill:#ffffff;fill-opacity:1;fill-rule:nonzero;stroke:none"
         id="path3046" />
      <path
         inkscape:connector-curvature="0"
         d="M 825.684,1199.59 C 952.695,1097.34 1072.5,980.422 1163.8,848.234 c 11.51,-16.992 16.71,-43.5 6.34,-62.793 -23.62,-39.457 -55.59,-75.449 -85.82,-112.031 l 0,-2.012 C 1008.86,591.047 929.082,508.391 842.969,440.422 800.918,414.785 762.324,358.918 708.184,393.469 584.918,483.625 466.84,595.656 366.902,715.754 c -16.992,26.48 -43.488,48.086 -55.297,78.047 -16.414,40.605 19.875,69.683 40.614,100.222 101.945,125.847 228.668,249.117 360.285,340.117 42.34,28.81 80.348,-11.51 113.18,-34.55 z m -86.399,-48.39 -11.512,-36.86 -57.609,-165.027 c 14.402,-1.442 32.258,0 46.367,-1.442 l 0,-1.433 -8.347,-186.622 1.441,-2.023 c 18.43,-1.727 41.469,-2.586 60.188,0.578 l 0,2.879 -7.489,181.152 1.153,6.047 50.683,0.864 c -25.332,66.817 -49.816,134.207 -73.437,201.887 l -1.438,0 z M 543.16,892.578 c -32.258,-16.121 -79.777,-40.613 -74.59,-84.961 6.907,-24.187 33.118,-39.746 53.852,-49.824 114.625,-50.398 266.687,-52.129 387.656,-14.402 29.942,11.523 69.981,28.218 75.449,64.804 -0.293,30.235 -32.257,49.246 -55.293,60.762 l 0,1.445 c 8.067,3.164 17.274,6.055 25.625,6.914 l 0,0.86 c -40.605,7.195 -79.765,17.859 -118.945,28.23 7.5,-17.285 12.969,-35.429 19.297,-53.289 11.816,3.75 23.906,6.629 36.582,8.36 20.73,-8.067 50.398,-19.59 53.281,-45.508 2.305,-24.192 -24.199,-35.996 -40.898,-45.793 -88.711,-32.254 -188.645,-35.418 -281.09,-10.946 -25.629,8.067 -62.492,18.438 -65.664,50.977 18.144,42.91 65.09,51.844 104.258,62.207 -20.16,12.957 -40.61,24.481 -60.196,38.887 -21.019,-1.153 -40.316,-10.371 -59.324,-18.723 z M 707.031,706.535 c -3.457,-66.25 -4.32,-127.59 -9.215,-194.121 26.207,-2.305 55.875,-4.609 83.805,-0.566 l -8.351,185.175 -1.434,8.926 c -21.32,-0.859 -41.477,-1.719 -64.805,0.586"
         style="fill:#ffffff;fill-opacity:1;fill-rule:nonzero;stroke:none"
         id="path3048" />
    </g>
  </g>
</svg>
